<?xml version="1.0" encoding="UTF-8" standalone="no"?>
<!-- Created with Inkscape (http://www.inkscape.org/) -->

<svg
   xmlns:dc="http://purl.org/dc/elements/1.1/"
   xmlns:cc="http://creativecommons.org/ns#"
   xmlns:rdf="http://www.w3.org/1999/02/22-rdf-syntax-ns#"
   xmlns:svg="http://www.w3.org/2000/svg"
   xmlns="http://www.w3.org/2000/svg"
   xmlns:sodipodi="http://sodipodi.sourceforge.net/DTD/sodipodi-0.dtd"
   xmlns:inkscape="http://www.inkscape.org/namespaces/inkscape"
   width="48"
   height="48"
   viewBox="0 0 48 48"
   id="svg4230"
   version="1.1"
   inkscape:version="0.91 r13725"
   sodipodi:docname="mixed.svg">
  <defs
     id="defs4232" />
  <sodipodi:namedview
     id="base"
     pagecolor="#ffffff"
     bordercolor="#666666"
     borderopacity="1.0"
     inkscape:pageopacity="0.0"
     inkscape:pageshadow="2"
     inkscape:zoom="11.2"
     inkscape:cx="31.766159"
     inkscape:cy="24.034179"
     inkscape:document-units="px"
     inkscape:current-layer="layer1"
     showgrid="false"
     units="px"
     inkscape:window-width="1440"
     inkscape:window-height="838"
     inkscape:window-x="-8"
     inkscape:window-y="-8"
     inkscape:window-maximized="1" />
  <metadata
     id="metadata4235">
    <rdf:RDF>
      <cc:Work
         rdf:about="">
        <dc:format>image/svg+xml</dc:format>
        <dc:type
           rdf:resource="http://purl.org/dc/dcmitype/StillImage" />
        <dc:title></dc:title>
      </cc:Work>
    </rdf:RDF>
  </metadata>
  <g
     inkscape:label="Layer 1"
     inkscape:groupmode="layer"
     id="layer1"
     transform="translate(0,-1004.3622)">
    <rect
       style="fill:#ffffff;stroke:#2d2d2d;stroke-width:1.5;stroke-linecap:butt;stroke-linejoin:miter;stroke-miterlimit:4;stroke-dasharray:none"
       id="rect4313"
       width="47.5"
       height="47.67857"
       x="0.26785713"
       y="1004.5944" />
    <path
       style="fill:none;fill-rule:evenodd;stroke:#000000;stroke-width:1px;stroke-linecap:butt;stroke-linejoin:miter;stroke-opacity:1"
       d="m 15.964286,1004.8622 0,47.1429"
       id="path4863"
       inkscape:connector-curvature="0" />
    <path
       style="fill:none;fill-rule:evenodd;stroke:#000000;stroke-width:1px;stroke-linecap:butt;stroke-linejoin:miter;stroke-opacity:1"
       d="m 31.714286,1004.8622 0,47.4107"
       id="path4865"
       inkscape:connector-curvature="0" />
    <path
       style="fill:none;fill-rule:evenodd;stroke:#000000;stroke-width:1px;stroke-linecap:butt;stroke-linejoin:miter;stroke-opacity:1"
       d="m 0.26785714,1020.1122 47.41071486,0"
       id="path4867"
       inkscape:connector-curvature="0" />
    <path
       style="fill:none;fill-rule:evenodd;stroke:#000000;stroke-width:1px;stroke-linecap:butt;stroke-linejoin:miter;stroke-opacity:1"
       d="m 0,1037.3801 47.678572,0"
       id="path4869"
       inkscape:connector-curvature="0" />
    <path
       style="fill:#bdcdd4;stroke:#2d2d2d;stroke-width:0.13392857;stroke-linecap:butt;stroke-linejoin:miter;stroke-miterlimit:4;stroke-dasharray:none"
       d="m 1.0161584,24.385464 0,-8.080357 7.1875,0 7.1874996,0 0,8.080357 0,8.080357 -7.1874996,0 -7.1875,0 0,-8.080357 z"
       id="path4881"
       inkscape:connector-curvature="0"
       transform="translate(0,1004.3622)" />
    <path
       style="fill:#bdcdd4;stroke:#2d2d2d;stroke-width:0.13392857;stroke-linecap:butt;stroke-linejoin:miter;stroke-miterlimit:4;stroke-dasharray:none"
       d="m 16.462587,8.1354643 0,-7.0982143 7.366071,0 7.366072,0 0,7.0982143 0,7.0982147 -7.366072,0 -7.366071,0 0,-7.0982147 z"
       id="path4883"
       inkscape:connector-curvature="0"
       transform="translate(0,1004.3622)" />
    <path
       style="fill:#bdcdd4;stroke:#2d2d2d;stroke-width:0.13392857;stroke-linecap:butt;stroke-linejoin:miter;stroke-miterlimit:4;stroke-dasharray:none"
       d="m 32.266159,24.385464 0,-8.080357 7.366071,0 7.366071,0 0,8.080357 0,8.080357 -7.366071,0 -7.366071,0 0,-8.080357 z"
       id="path4885"
       inkscape:connector-curvature="0"
       transform="translate(0,1004.3622)" />
    <path
       style="fill:#bdcdd4;stroke:#2d2d2d;stroke-width:0.13392857;stroke-linecap:butt;stroke-linejoin:miter;stroke-miterlimit:4;stroke-dasharray:none"
       d="m 16.462587,40.322964 0,-6.785714 7.366071,0 7.366072,0 0,6.785714 0,6.785715 -7.366072,0 -7.366071,0 0,-6.785715 z"
       id="path4889"
       inkscape:connector-curvature="0"
       transform="translate(0,1004.3622)" />
    <path
       style="fill:#0084c8;stroke:#2d2d2d;stroke-width:0.13392857;stroke-linecap:butt;stroke-linejoin:miter;stroke-miterlimit:4;stroke-dasharray:none"
       d="m 16.462587,24.385464 0,-8.080357 7.366071,0 7.366072,0 0,8.080357 0,8.080357 -7.366072,0 -7.366071,0 0,-8.080357 z"
       id="path4891"
       inkscape:connector-curvature="0"
       transform="translate(0,1004.3622)" />
    <path
       style="fill:#0084c8;stroke:#2d2d2d;stroke-width:0.13392857;stroke-linecap:butt;stroke-linejoin:miter;stroke-miterlimit:4;stroke-dasharray:none"
       d="m 32.266159,40.322964 0,-6.785714 7.366071,0 7.366071,0 0,6.785714 0,6.785715 -7.366071,0 -7.366071,0 0,-6.785715 z"
       id="path4893"
       inkscape:connector-curvature="0"
       transform="translate(0,1004.3622)" />
    <path
       style="fill:#0084c8;stroke:#2d2d2d;stroke-width:0.13392857;stroke-linecap:butt;stroke-linejoin:miter;stroke-miterlimit:4;stroke-dasharray:none"
       d="m 32.266159,8.1354643 0,-7.0982143 7.366071,0 7.366071,0 0,7.0982143 0,7.0982147 -7.366071,0 -7.366071,0 0,-7.0982147 z"
       id="path4895"
       inkscape:connector-curvature="0"
       transform="translate(0,1004.3622)" />
    <path
       style="fill:#0084c8;stroke:#2d2d2d;stroke-width:0.13392857;stroke-linecap:butt;stroke-linejoin:miter;stroke-miterlimit:4;stroke-dasharray:none"
       d="m 1.0161584,8.1354643 0,-7.0982143 7.1875,0 7.1874996,0 0,7.0982143 0,7.0982147 -7.1874996,0 -7.1875,0 0,-7.0982147 z"
       id="path4897"
       inkscape:connector-curvature="0"
       transform="translate(0,1004.3622)" />
    <path
       style="fill:#0084c8;stroke:#2d2d2d;stroke-width:0.13392857;stroke-linecap:butt;stroke-linejoin:miter;stroke-miterlimit:4;stroke-dasharray:none"
       d="m 1.0161584,40.322964 0,-6.785714 7.1875,0 7.1874996,0 0,6.785714 0,6.785715 -7.1874996,0 -7.1875,0 0,-6.785715 z"
       id="path4899"
       inkscape:connector-curvature="0"
       transform="translate(0,1004.3622)" />
  </g>
</svg>
